<svg version="1.1" id="Layer_1" xmlns="http://www.w3.org/2000/svg" xmlns:xlink="http://www.w3.org/1999/xlink" x="0px" y="0px"
	 width="100%" viewBox="0 0 1024 1024" enable-background="new 0 0 1024 1024" xml:space="preserve">
<path fill="#000000" opacity="1.000000" stroke="none" 
	d="
M740.523560,628.528320 
	C749.190613,639.817139 754.230957,652.139343 754.296753,666.117920 
	C754.507812,710.983765 731.083008,739.814026 686.908691,749.220215 
	C674.190735,751.928345 661.327332,753.330933 648.301086,753.317505 
	C605.641602,753.273560 562.982178,753.307251 520.322693,753.304016 
	C513.701050,753.303528 513.666321,753.286194 513.666016,746.661560 
	C513.661621,654.677063 513.692383,562.692627 513.594788,470.708252 
	C513.590088,466.270782 514.708984,464.617279 519.456787,464.637177 
	C561.948853,464.815338 604.443481,464.550629 646.934143,464.858795 
	C667.982544,465.011444 688.208923,468.807068 706.381775,480.610382 
	C738.466919,501.449768 749.727783,542.125000 732.233093,575.265686 
	C726.967102,585.241211 719.125183,592.810913 709.838745,599.012146 
	C708.370117,599.992859 706.195496,600.591675 706.496826,602.888367 
	C706.782288,605.064392 708.927490,605.431274 710.579102,606.102539 
	C722.410339,610.911255 732.269409,618.350220 740.523560,628.528320 
M568.074768,683.499878 
	C568.074463,688.494629 568.052551,693.489441 568.079224,698.484070 
	C568.112854,704.786255 568.289917,704.973694 574.495667,704.974243 
	C601.633606,704.976746 628.771667,704.987244 655.909485,704.933899 
	C661.055969,704.923767 666.180725,704.690552 671.281677,703.660217 
	C694.609619,698.948120 707.434143,678.776978 700.364990,656.772034 
	C695.142456,640.515198 681.888184,634.212341 666.319031,631.328491 
	C657.698914,629.731750 649.076416,630.838074 640.441650,630.903442 
	C618.799194,631.067505 597.154663,630.975220 575.510986,630.963257 
	C568.284546,630.959229 568.116760,631.042786 568.099487,638.047241 
	C568.062866,652.864746 568.080627,667.682434 568.074768,683.499878 
M568.070068,537.500000 
	C568.071716,550.826721 568.225830,564.156189 567.992065,577.478760 
	C567.910583,582.121094 569.206909,583.918335 574.150391,583.869080 
	C598.469360,583.626343 622.791626,583.717834 647.112732,583.674805 
	C654.033813,583.662598 660.670471,582.099915 666.949097,579.327271 
	C683.489990,572.022827 691.619263,554.333130 686.353821,537.635620 
	C681.491516,522.216064 666.651062,514.256775 650.475037,513.615967 
	C624.860474,512.601379 599.178162,513.331665 573.525024,513.216614 
	C569.351379,513.197876 567.940125,515.079224 568.040466,519.009888 
	C568.189209,524.836426 568.073853,530.669678 568.070068,537.500000 
z"/>
<path fill="#000000" opacity="1.000000" stroke="none" 
	d="
M465.579712,614.534424 
	C454.278046,629.401367 439.332489,638.345642 420.957184,644.168396 
	C443.831787,680.665894 467.202850,715.883972 488.944977,751.999023 
	C486.879974,753.750793 485.146149,753.269470 483.552155,753.273621 
	C467.722504,753.315125 451.891846,753.208679 436.063721,753.369751 
	C432.455414,753.406433 430.348114,752.132812 428.432312,749.087463 
	C409.009338,718.213013 389.394379,687.459290 369.973083,656.583740 
	C367.582672,652.783569 364.862885,651.186951 360.261200,651.280273 
	C345.937103,651.570923 331.600800,651.527100 317.274628,651.288208 
	C312.694702,651.211853 311.233459,652.667725 311.260651,657.293152 
	C311.435944,687.118652 311.353577,716.945740 311.343872,746.772278 
	C311.341766,753.292847 311.319641,753.294189 304.702148,753.295837 
	C290.871948,753.299255 277.038879,753.142334 263.213257,753.394897 
	C258.738342,753.476624 257.572418,751.918274 257.577087,747.625122 
	C257.677307,655.146179 257.672760,562.667175 257.587158,470.188232 
	C257.583435,466.181580 258.656281,464.640289 262.907623,464.655151 
	C303.397919,464.796967 343.893555,464.389221 384.377930,464.903625 
	C410.315857,465.233185 434.440369,472.154724 454.472565,489.594299 
	C471.990906,504.845337 481.074677,524.478577 483.465576,547.469788 
	C486.017700,572.011719 480.624664,594.356262 465.579712,614.534424 
M402.277557,600.768860 
	C424.073425,592.598755 431.435791,576.970764 431.208221,559.092896 
	C430.843811,530.466309 412.690399,515.005310 385.689362,513.579529 
	C362.924927,512.377441 340.047638,513.399597 317.222626,513.186157 
	C312.581726,513.142761 311.231140,514.681091 311.262726,519.239502 
	C311.442902,545.230896 311.346069,571.224243 311.351257,597.216919 
	C311.352570,603.905945 311.365601,603.956909 317.913300,603.961731 
	C338.907257,603.977234 359.901215,603.941040 380.895172,603.947632 
	C387.917633,603.949829 394.851837,603.394958 402.277557,600.768860 
z"/>
<path fill="#000000" opacity="1.000000" stroke="none" 
	d="
M665.917603,357.497803 
	C665.339844,346.925659 666.411377,336.716888 664.229065,326.689758 
	C656.883362,292.937988 637.622070,268.328918 606.850891,252.897079 
	C567.034424,232.929016 514.909668,239.943695 483.075531,276.062653 
	C468.037933,293.124298 459.243317,313.169098 456.250092,335.730774 
	C455.728302,339.663574 455.273132,343.605194 454.803589,347.410370 
	C452.938599,348.551300 451.706299,347.413910 450.563568,346.568939 
	C427.179749,329.279022 394.961670,332.683411 372.757050,349.640228 
	C349.566833,367.349731 340.011108,391.086792 343.078583,420.155731 
	C344.084717,429.690735 346.982056,438.596863 350.354828,447.650543 
	C347.915070,448.940186 345.598999,448.932373 343.344421,448.783203 
	C336.684143,448.342682 330.033051,448.182037 323.376801,448.795898 
	C320.306610,449.079041 318.505493,447.909424 317.520752,444.753296 
	C299.101044,385.717255 331.021088,325.702942 386.899261,308.295349 
	C400.035950,304.202911 413.484222,304.158112 426.940887,304.944427 
	C430.755859,305.167328 432.189117,304.220123 433.477112,300.911713 
	C442.836670,276.869690 456.935730,256.127350 477.029785,239.729919 
	C496.789032,223.605698 519.601562,214.602036 544.792236,211.635269 
	C581.634644,207.296280 614.994141,216.617386 643.994812,239.472885 
	C670.983032,260.742401 687.980408,288.623474 694.336426,322.663147 
	C694.610535,324.131012 695.246704,325.593048 695.210938,327.045410 
	C695.106934,331.272919 697.541260,332.770844 701.214600,333.587769 
	C730.933228,340.196869 751.719604,357.938751 764.847290,385.052887 
	C781.467163,419.379852 774.603210,463.386169 748.518555,491.098358 
	C746.059998,493.710327 744.520874,493.324005 742.681885,490.683411 
	C738.660767,484.909424 733.876770,479.780212 728.567932,475.207886 
	C725.609497,472.659851 725.545776,470.755249 728.117981,467.825256 
	C753.469849,438.946838 747.362122,391.561371 712.040588,371.175018 
	C699.921326,364.180176 686.880188,360.896698 672.898315,361.304993 
	C670.027832,361.388824 667.063293,361.607056 665.917603,357.497803 
z"/>
<path fill="#000000" opacity="1.000000" stroke="none" 
	d="
M612.445862,343.167419 
	C618.786194,346.381775 621.349609,351.424713 621.348450,357.974060 
	C621.344910,378.473633 621.376282,398.973267 621.336060,419.472748 
	C621.311584,431.954926 613.156189,440.987518 600.667725,441.143127 
	C574.172791,441.473267 547.667175,441.496033 521.173279,441.124359 
	C508.858826,440.951569 500.705078,431.994141 500.656555,419.828186 
	C500.573517,399.004791 500.537109,378.180389 500.661285,357.357452 
	C500.716309,348.130005 505.607056,342.686859 514.707703,341.743073 
	C518.239380,341.376831 518.573486,339.556915 518.678955,336.768494 
	C518.929749,330.133514 518.080688,323.493042 519.471741,316.854980 
	C523.953613,295.467896 540.951904,283.173950 561.291260,282.996185 
	C582.124451,282.814178 599.503906,297.592163 603.078979,317.672485 
	C603.890137,322.228882 603.936768,326.950775 604.015625,331.601898 
	C604.164551,340.386749 604.068115,340.388397 612.445862,343.167419 
M582.598572,325.058472 
	C582.286926,323.596161 582.021362,322.122253 581.655945,320.673492 
	C579.466187,311.992096 572.203674,305.553009 563.394836,304.452148 
	C554.746399,303.371338 546.753540,307.746429 542.536194,316.018372 
	C538.689514,323.563446 540.463806,331.677490 540.449707,339.584167 
	C540.446350,341.491089 542.340454,341.624115 543.890015,341.624969 
	C555.379089,341.631287 566.868408,341.590057 578.357178,341.651306 
	C581.328308,341.667145 582.631958,340.314697 582.622375,337.442139 
	C582.609558,333.612579 582.626587,329.782928 582.598572,325.058472 
M568.812805,393.919678 
	C569.517090,393.213409 570.274841,392.552399 570.917236,391.793701 
	C575.809875,386.014862 575.549133,378.431152 570.310120,373.412140 
	C565.126282,368.445984 556.927368,368.548096 551.978821,373.640442 
	C546.940369,378.825317 546.810730,386.552338 552.202393,391.955261 
	C554.709167,394.467285 555.613708,397.007294 555.384521,400.354889 
	C555.203186,403.003876 555.484619,405.683716 555.319336,408.334778 
	C555.048706,412.675659 556.792053,414.995544 561.299866,414.911621 
	C565.560059,414.832245 567.595825,412.795563 567.697327,408.416565 
	C567.804321,403.798187 566.916199,399.124664 568.812805,393.919678 
z"/>
</svg>